<svg width="73" height="73" viewBox="0 0 73 73" fill="none" xmlns="http://www.w3.org/2000/svg">
<g id="certificate-1356 1">
<g id="Group">
<path id="Vector" d="M36.2656 51.5614L46.0373 72.5175L53.9773 65.2426L64.6545 63.8363L55.1472 43.4475C47.4476 43.3818 41.1735 45.8883 36.6518 51.5614" fill="url(#paint0_linear_295_627)"/>
<path id="Vector_2" d="M36.6525 51.5609L26.8808 72.5171L18.9408 65.2421L8.26367 63.8359L17.771 43.4471C27.2606 42.7299 33.6862 45.2941 36.6525 51.5609Z" fill="url(#paint1_linear_295_627)"/>
<path id="Vector_3" d="M36.4593 51.5613C50.5869 51.5613 62.0389 40.1084 62.0389 25.9817C62.0389 11.855 50.5869 0.401367 36.4593 0.401367C28.0322 17.855 27.3607 34.9401 36.4593 51.5613Z" fill="url(#paint2_linear_295_627)"/>
<path id="Vector_4" d="M36.4585 51.5613C22.3309 51.5613 10.8789 40.1084 10.8789 25.9817C10.8789 11.855 22.3309 0.401367 36.4585 0.401367V51.5348" fill="url(#paint3_linear_295_627)"/>
<path id="Vector_5" d="M31.4733 44.0004C31.3996 44.0004 31.3243 43.99 31.2498 43.9692C21.3322 41.0957 15.599 30.6902 18.4716 20.7718C18.5942 20.3463 19.0381 20.102 19.4644 20.2254C19.8891 20.348 20.1343 20.7927 20.0109 21.2182C17.3851 30.2871 22.6263 39.8024 31.6961 42.4291C32.1208 42.5525 32.366 42.9972 32.2426 43.4219C32.1408 43.7728 31.8203 44.0004 31.4733 44.0004Z" fill="white"/>
<path id="Vector_6" d="M53.6759 31.7684C53.6022 31.7684 53.5268 31.758 53.4531 31.7364C53.0284 31.613 52.7832 31.1691 52.9058 30.7436C54.1791 26.3501 53.6639 21.7243 51.4571 17.7178C49.2496 13.7114 45.6149 10.8043 41.2214 9.53186C40.7968 9.40926 40.5516 8.96455 40.6742 8.53906C40.7976 8.11438 41.2415 7.86999 41.667 7.99258C46.4715 9.38362 50.4467 12.5631 52.8602 16.9446C55.2744 21.326 55.837 26.3846 54.4459 31.1891C54.3441 31.5409 54.0244 31.7684 53.6759 31.7684Z" fill="white"/>
<path id="Vector_7" d="M42.9434 36.0819C42.816 36.0819 42.6878 36.0515 42.5709 35.9898L36.4586 32.7774L30.3472 35.9906C30.0772 36.1324 29.751 36.1084 29.5034 35.9297C29.2566 35.7502 29.1332 35.4465 29.1845 35.146L30.352 28.3407L25.408 23.5209C25.1901 23.3078 25.1108 22.9889 25.2053 22.6996C25.2999 22.4104 25.5507 22.198 25.8528 22.1539L32.6853 21.1611L35.7407 14.9696C35.8753 14.6963 36.1541 14.5225 36.4594 14.5225C36.7647 14.5225 37.0436 14.6955 37.1782 14.9696L40.2335 21.1611L47.0661 22.1539C47.3682 22.198 47.6182 22.4095 47.7135 22.6996C47.8073 22.9897 47.7295 23.3078 47.5108 23.5209L42.566 28.3407L43.7335 35.146C43.7848 35.4465 43.6614 35.7502 43.4154 35.9297C43.2752 36.0307 43.1093 36.0819 42.9434 36.0819Z" fill="white"/>
</g>
</g>
<defs>
<linearGradient id="paint0_linear_295_627" x1="54.4938" y1="40.6655" x2="72.145" y2="96.7487" gradientUnits="userSpaceOnUse">
<stop stop-color="#5704E0"/>
<stop offset="0.303956" stop-color="#F331EA"/>
<stop offset="0.4661" stop-color="#9E0099"/>
<stop offset="1" stop-color="#950085"/>
</linearGradient>
<linearGradient id="paint1_linear_295_627" x1="26.4919" y1="40.5382" x2="44.2711" y2="96.8042" gradientUnits="userSpaceOnUse">
<stop stop-color="#5704E0"/>
<stop offset="0.303956" stop-color="#F331EA"/>
<stop offset="0.4661" stop-color="#9E0099"/>
<stop offset="1" stop-color="#950085"/>
</linearGradient>
<linearGradient id="paint2_linear_295_627" x1="50.5306" y1="-4.49235" x2="93.3381" y2="83.0467" gradientUnits="userSpaceOnUse">
<stop stop-color="#5704E0"/>
<stop offset="0.303956" stop-color="#F331EA"/>
<stop offset="0.4661" stop-color="#9E0099"/>
<stop offset="1" stop-color="#950085"/>
</linearGradient>
<linearGradient id="paint3_linear_295_627" x1="27.3033" y1="-4.49235" x2="75.6957" y2="74.2332" gradientUnits="userSpaceOnUse">
<stop stop-color="#5704E0"/>
<stop offset="0.303956" stop-color="#F331EA"/>
<stop offset="0.4661" stop-color="#9E0099"/>
<stop offset="1" stop-color="#950085"/>
</linearGradient>
</defs>
</svg>
