<svg width="58" height="58" viewBox="0 0 58 58" fill="none" xmlns="http://www.w3.org/2000/svg">
<g id="fluent:chat-12-regular">
<path id="Vector" d="M19.3313 26.5814C19.3313 25.9405 19.5859 25.3258 20.0391 24.8726C20.4923 24.4193 21.107 24.1647 21.748 24.1647H36.248C36.8889 24.1647 37.5036 24.4193 37.9568 24.8726C38.41 25.3258 38.6646 25.9405 38.6646 26.5814C38.6646 27.2223 38.41 27.837 37.9568 28.2902C37.5036 28.7434 36.8889 28.9981 36.248 28.9981H21.748C21.107 28.9981 20.4923 28.7434 20.0391 28.2902C19.5859 27.837 19.3313 27.2223 19.3313 26.5814ZM21.748 33.8314C21.107 33.8314 20.4923 34.086 20.0391 34.5392C19.5859 34.9924 19.3313 35.6071 19.3313 36.2481C19.3313 36.889 19.5859 37.5037 20.0391 37.9569C20.4923 38.4101 21.107 38.6647 21.748 38.6647H31.4146C32.0556 38.6647 32.6703 38.4101 33.1235 37.9569C33.5767 37.5037 33.8313 36.889 33.8313 36.2481C33.8313 35.6071 33.5767 34.9924 33.1235 34.5392C32.6703 34.086 32.0556 33.8314 31.4146 33.8314H21.748ZM4.8313 28.9981C4.83251 23.6998 6.57488 18.5487 9.79026 14.3376C13.0056 10.1265 17.5158 7.08875 22.6267 5.69191C27.7375 4.29507 33.1658 4.61652 38.0761 6.60681C42.9863 8.59709 47.1065 12.1459 49.8024 16.7071C52.4983 21.2682 53.6205 26.5889 52.9964 31.8503C52.3722 37.1118 50.0364 42.0223 46.3482 45.8261C42.66 49.63 37.824 52.1164 32.5843 52.9027C27.3447 53.6889 21.9919 52.7315 17.3496 50.1777L7.95363 53.0391C7.53454 53.1667 7.08862 53.1781 6.66358 53.0719C6.23854 52.9657 5.85037 52.7459 5.54058 52.4361C5.23079 52.1263 5.01104 51.7382 4.90484 51.3131C4.79864 50.8881 4.80997 50.4422 4.93763 50.0231L7.79897 40.6126C5.85 37.0517 4.82937 33.0574 4.8313 28.9981ZM28.998 9.66473C25.566 9.66444 22.1958 10.5777 19.2336 12.3108C16.2713 14.0438 13.8238 16.5341 12.1423 19.526C10.4609 22.5178 9.60617 25.9034 9.66595 29.3348C9.72572 32.7662 10.6978 36.1199 12.4825 39.0514C12.6596 39.3426 12.7732 39.668 12.8156 40.0062C12.8581 40.3444 12.8286 40.6878 12.729 41.0137L10.8778 47.0989L16.9533 45.2477C17.2803 45.1481 17.6248 45.119 17.9639 45.1623C18.303 45.2056 18.629 45.3204 18.9205 45.4991C21.4685 47.0547 24.3422 47.9992 27.3163 48.2584C30.2904 48.5176 33.2842 48.0845 36.0629 46.9931C38.8416 45.9017 41.3299 44.1816 43.3326 41.9676C45.3353 39.7536 46.7981 37.1059 47.6063 34.232C48.4145 31.3581 48.5462 28.3361 47.991 25.4028C47.4359 22.4695 46.2089 19.7046 44.4064 17.3248C42.6038 14.945 40.2746 13.015 37.6014 11.686C34.9281 10.357 31.9834 9.6652 28.998 9.66473Z" fill="white"/>
</g>
</svg>
