<svg width="17" height="18" viewBox="0 0 17 18" fill="none" xmlns="http://www.w3.org/2000/svg">
<g id="teenyicons:instagram-solid" clip-path="url(#clip0_671_505)">
<path id="Vector" d="M8.50521 5.74219C7.75376 5.74219 7.03309 6.0407 6.50174 6.57205C5.97039 7.1034 5.67188 7.82407 5.67188 8.57552C5.67188 9.32697 5.97039 10.0476 6.50174 10.579C7.03309 11.1103 7.75376 11.4089 8.50521 11.4089C9.25665 11.4089 9.97732 11.1103 10.5087 10.579C11.04 10.0476 11.3385 9.32697 11.3385 8.57552C11.3385 7.82407 11.04 7.1034 10.5087 6.57205C9.97732 6.0407 9.25665 5.74219 8.50521 5.74219Z" fill="#B62897"/>
<path id="Vector_2" fill-rule="evenodd" clip-rule="evenodd" d="M5.1 0.0742188C3.7474 0.0742188 2.45019 0.611539 1.49376 1.56797C0.53732 2.52441 0 3.82161 0 5.17422L0 11.9742C0 13.3268 0.53732 14.624 1.49376 15.5805C2.45019 16.5369 3.7474 17.0742 5.1 17.0742H11.9C13.2526 17.0742 14.5498 16.5369 15.5062 15.5805C16.4627 14.624 17 13.3268 17 11.9742V5.17422C17 3.82161 16.4627 2.52441 15.5062 1.56797C14.5498 0.611539 13.2526 0.0742188 11.9 0.0742188L5.1 0.0742188ZM4.53333 8.57422C4.53333 7.52219 4.95125 6.51326 5.69514 5.76936C6.43904 5.02547 7.44797 4.60755 8.5 4.60755C9.55203 4.60755 10.561 5.02547 11.3049 5.76936C12.0488 6.51326 12.4667 7.52219 12.4667 8.57422C12.4667 9.62624 12.0488 10.6352 11.3049 11.3791C10.561 12.123 9.55203 12.5409 8.5 12.5409C7.44797 12.5409 6.43904 12.123 5.69514 11.3791C4.95125 10.6352 4.53333 9.62624 4.53333 8.57422ZM12.4667 4.60755H13.6V3.47422H12.4667V4.60755Z" fill="#B62897"/>
</g>
<defs>
<clipPath id="clip0_671_505">
<rect width="17" height="17" fill="white" transform="translate(0 0.0742188)"/>
</clipPath>
</defs>
</svg>
