<svg width="20" height="19" viewBox="0 0 20 19" fill="none" xmlns="http://www.w3.org/2000/svg">
<path id="Vector" d="M17.9634 0.382812H2.03234C1.29027 0.382812 0.6875 0.964812 0.6875 1.68281V17.0828C0.6875 17.8008 1.29027 18.3828 2.03234 18.3828H17.9634C18.7068 18.3828 19.3082 17.8008 19.3082 17.0828V1.68281C19.3082 0.964812 18.7068 0.382812 17.9634 0.382812ZM6.21026 15.7208H3.44612V7.13081H6.21026V15.7208ZM4.82958 5.95681C3.94268 5.95681 3.22682 5.26281 3.22682 4.40881C3.22682 3.55381 3.94268 2.86081 4.82958 2.86081C5.71372 2.86081 6.42956 3.55481 6.42956 4.40881C6.42956 5.26381 5.71372 5.95681 4.82958 5.95681ZM16.5551 15.7208H13.7951V11.5439C13.7951 10.5478 13.7772 9.26581 12.3592 9.26581C10.922 9.26581 10.704 10.3518 10.704 11.4717V15.7208H7.94405V7.13081H10.5923V8.30481H10.6296C10.9978 7.62981 11.8999 6.91781 13.2434 6.91781C16.0392 6.91781 16.5565 8.69681 16.5565 11.0097L16.5551 15.7208Z" fill="#B62897"/>
</svg>
